<?xml version="1.0" standalone="no"?>
<!DOCTYPE svg PUBLIC "-//W3C//DTD SVG 20010904//EN"
 "http://www.w3.org/TR/2001/REC-SVG-20010904/DTD/svg10.dtd">
<svg version="1.0" xmlns="http://www.w3.org/2000/svg"
 width="900.000000pt" height="900.000000pt" viewBox="0 0 900.000000 900.000000"
 preserveAspectRatio="xMidYMid meet">
<metadata>
Created by potrace 1.16, written by Peter Selinger 2001-2019
</metadata>
<g transform="translate(0.000000,900.000000) scale(0.100000,-0.100000)"
fill="#000000" stroke="none">
<path d="M0 4500 l0 -4500 1229 0 1229 0 41 213 c84 432 141 817 162 1087 21
277 2 499 -77 888 -95 470 -253 813 -522 1132 -30 36 -200 214 -378 395 -409
418 -508 536 -594 706 -57 112 -74 179 -74 289 0 111 20 190 73 300 84 174
263 280 491 291 l55 3 6 -109 c24 -434 327 -762 854 -925 209 -65 422 -94 680
-94 324 0 555 61 753 197 171 117 236 247 183 363 -23 52 -146 182 -224 239
l-58 43 64 4 c84 5 150 39 202 104 22 28 45 59 50 68 9 16 15 11 43 -32 131
-203 470 -228 641 -47 62 65 106 152 139 274 25 91 26 108 26 351 1 222 -2
271 -22 377 -57 312 -158 501 -309 575 -129 63 -247 37 -353 -79 -54 -59 -99
-134 -140 -229 l-27 -64 -15 33 c-48 98 -144 163 -260 175 l-73 8 59 18 c73
22 140 17 223 -16 l60 -24 24 45 c37 70 128 156 199 190 338 160 638 -78 749
-594 45 -210 53 -526 16 -699 -9 -43 -15 -79 -13 -81 2 -1 55 27 118 62 423
237 796 492 1020 697 291 266 421 366 582 447 163 82 360 128 487 114 63 -7
182 -40 223 -61 l28 -14 -37 -48 -37 -47 -106 0 c-92 0 -111 -3 -154 -25 -91
-46 -110 -114 -50 -180 65 -71 211 -120 361 -120 138 0 181 25 170 97 -7 40
-53 116 -95 157 l-30 28 26 39 c14 21 29 39 33 39 14 0 112 -107 150 -164 62
-93 82 -168 87 -332 l4 -141 -44 -24 c-38 -22 -47 -23 -78 -12 -90 31 -168 7
-217 -66 -30 -44 -29 -84 2 -136 37 -63 113 -108 191 -113 l62 -4 -48 -142
c-84 -249 -170 -471 -560 -1446 -485 -1213 -560 -1475 -548 -1913 11 -373 115
-651 385 -1028 167 -234 320 -410 711 -817 l214 -222 519 0 519 0 0 4500 0
4500 -4500 0 -4500 0 0 -4500z m4625 2156 c198 -93 326 -444 325 -895 -1 -369
-99 -611 -280 -688 -49 -20 -156 -28 -218 -14 -165 35 -261 144 -304 346 -26
123 -35 405 -18 567 35 343 164 629 314 694 49 21 124 17 181 -10z m2845 -170
c0 -3 -9 -21 -21 -40 -25 -42 -18 -73 17 -82 34 -9 70 12 85 47 15 37 22 36
52 -3 63 -84 71 -134 25 -156 -60 -28 -248 -8 -336 37 -48 24 -70 50 -78 88
-8 38 25 77 81 97 36 13 175 22 175 12z m-3535 -35 c52 -23 117 -89 156 -157
l31 -55 -24 -117 c-20 -103 -23 -144 -22 -342 0 -222 10 -332 40 -437 14 -50
13 -55 -6 -93 -56 -109 -137 -163 -245 -163 -217 -1 -358 202 -384 548 -28
377 84 732 259 817 47 23 143 23 195 -1z m3823 -606 c3 -2 -9 -16 -26 -30 -38
-32 -48 -69 -27 -101 22 -35 42 -30 90 23 41 44 43 45 54 25 45 -83 -43 -161
-149 -132 -58 15 -120 76 -120 116 1 70 62 120 135 109 21 -3 41 -8 43 -10z
m-5313 -257 c32 -10 62 -22 98 -39 27 -12 57 -72 57 -115 0 -58 -31 -107 -104
-165 -39 -31 -82 -60 -96 -64 -14 -4 -45 -18 -70 -31 -108 -55 -280 -51 -347
9 -29 26 -63 117 -56 148 38 163 206 269 423 267 36 -1 79 -5 95 -10z"/>
<path d="M4441 5981 c-45 -45 -33 -164 21 -204 50 -37 98 0 111 87 15 95 -75
174 -132 117z"/>
<path d="M3785 5800 c-46 -51 -23 -186 35 -210 53 -22 100 32 100 115 0 91
-85 150 -135 95z"/>
<path d="M7029 6085 c-319 -88 -582 -293 -697 -545 -22 -50 -39 -90 -36 -90 3
0 30 27 60 60 53 57 151 136 159 129 7 -8 -105 -191 -156 -257 -114 -144 -318
-338 -519 -493 -624 -480 -1467 -815 -2325 -925 -175 -23 -635 -26 -795 -6
-147 19 -335 58 -470 98 -127 38 -348 143 -473 225 -173 114 -192 233 -59 380
65 72 17 46 -64 -35 -66 -66 -79 -98 -68 -170 15 -92 71 -165 186 -238 117
-76 416 -228 508 -260 8 -3 35 -59 59 -124 24 -66 54 -146 67 -179 12 -33 118
-311 234 -618 116 -307 228 -598 249 -647 75 -175 178 -307 291 -373 67 -39
211 -84 330 -102 198 -31 677 -28 925 5 526 72 965 317 1288 720 500 624 886
1795 923 2800 4 95 2 187 -3 217 l-10 53 51 19 c60 22 189 51 378 86 128 23
178 39 178 57 0 8 -31 5 -235 -23 -161 -22 -332 -65 -438 -108 l-72 -30 55 50
c189 174 433 277 718 305 40 4 71 9 68 11 -10 11 -126 32 -171 32 -27 0 -88
-11 -136 -24z m-463 -647 c-26 -279 -94 -708 -156 -988 -65 -297 -54 -273
-171 -365 -55 -44 -103 -81 -107 -83 -4 -1 -13 74 -20 167 -12 160 -55 490
-85 647 l-14 72 107 95 c161 144 336 347 416 483 14 24 28 44 31 44 3 0 3 -33
-1 -72z m-617 -785 c48 -230 84 -454 105 -660 l5 -51 -202 -135 c-238 -160
-420 -267 -649 -382 l-166 -85 -6 58 c-3 31 -8 95 -11 142 -8 105 -60 517 -79
625 -8 44 -11 83 -8 86 4 4 52 26 107 50 269 117 574 291 799 456 32 24 62 43
66 43 4 0 21 -66 39 -147z m-1124 -471 c38 -120 149 -862 131 -879 -3 -3 -69
-32 -148 -65 -199 -83 -500 -182 -647 -213 -101 -21 -340 -55 -387 -55 -25 0
-140 890 -118 909 5 4 56 16 114 25 222 38 732 180 950 265 91 35 97 36 105
13z m1449 -233 c-19 -57 -61 -165 -92 -239 l-57 -135 -3 165 c-1 90 0 170 2
176 5 13 179 144 184 140 1 -2 -14 -50 -34 -107z m-3719 -79 c60 -11 112 -23
115 -28 4 -4 22 -74 40 -157 36 -163 119 -483 145 -554 8 -24 13 -47 10 -50
-8 -7 -144 41 -156 55 -5 6 -36 87 -69 180 -32 93 -93 260 -133 372 -41 111
-71 202 -68 202 3 0 55 -9 116 -20z m3509 -42 c3 -29 6 -128 6 -219 l0 -166
-89 -179 c-160 -319 -290 -505 -505 -720 -130 -130 -242 -220 -357 -287 -25
-15 -48 -27 -51 -27 -3 0 -8 217 -12 483 -5 265 -9 500 -9 522 l-2 40 140 73
c261 138 661 381 810 493 28 21 53 38 56 38 3 1 9 -23 13 -51z m-2519 -25 c19
-159 106 -702 130 -810 5 -23 5 -23 -122 -23 -170 1 -458 38 -584 76 -19 5
-58 140 -109 367 -23 105 -80 406 -80 424 0 1 64 0 143 -4 132 -5 448 9 556
26 25 4 49 6 52 4 4 -1 10 -29 14 -60z m1425 -595 c0 -13 7 -111 15 -218 7
-107 19 -327 26 -489 15 -342 31 -297 -130 -365 -236 -100 -442 -141 -804
-160 l-88 -5 -10 27 c-34 89 -209 876 -197 887 2 2 50 9 108 15 291 32 572
113 910 263 80 36 151 65 158 66 6 1 12 -9 12 -21z m-2144 -191 l69 -24 71
-204 c39 -112 109 -306 156 -431 47 -126 82 -228 78 -228 -13 0 -120 116 -156
168 -38 57 -121 220 -156 305 -55 137 -154 437 -143 437 6 0 42 -10 81 -23z
m259 -67 c170 -36 286 -50 450 -57 l161 -6 48 -201 c47 -197 150 -568 180
-655 9 -24 16 -47 16 -52 0 -12 -215 -11 -325 1 -110 13 -222 42 -295 78 l-55
27 -58 165 c-55 156 -208 633 -223 693 -3 15 -4 27 -2 27 3 0 49 -9 103 -20z"/>
<path d="M3336 1493 c4 -16 12 -31 18 -35 24 -16 231 -80 323 -99 188 -41 522
-36 802 12 101 17 119 23 138 46 12 15 21 29 19 31 -2 1 -68 -6 -147 -17 -478
-66 -747 -52 -1046 53 -56 20 -105 36 -108 36 -3 0 -2 -12 1 -27z"/>
<path d="M6368 517 c-21 -17 -37 -57 -78 -187 -28 -91 -53 -172 -56 -180 -4
-9 -32 37 -70 113 -36 70 -68 125 -73 123 -23 -14 -13 -53 44 -182 59 -133 61
-140 48 -171 l-13 -33 33 0 34 0 82 260 c46 142 81 264 79 269 -1 6 -15 1 -30
-12z"/>
</g>
</svg>
